<svg width="100" height="36" viewBox="0 0 100 36" fill="none" xmlns="http://www.w3.org/2000/svg">
<path d="M42.7382 20.6537C42.7382 22.4208 42.3517 23.9891 41.5786 25.3586C40.8055 26.706 39.7563 27.7663 38.4309 28.5394C37.1056 29.3125 35.6147 29.699 33.958 29.699C32.3014 29.699 30.8104 29.3125 29.4851 28.5394C28.1598 27.7663 27.0995 26.706 26.3043 25.3586C25.5312 23.9891 25.1447 22.4208 25.1447 20.6537C25.1447 18.8646 25.5312 17.2963 26.3043 15.9489C27.0995 14.5794 28.1598 13.5081 29.4851 12.735C30.8104 11.9398 32.3014 11.5422 33.958 11.5422C35.6147 11.5422 37.1056 11.9398 38.4309 12.735C39.7563 13.5081 40.8055 14.5794 41.5786 15.9489C42.3517 17.2963 42.7382 18.8646 42.7382 20.6537ZM39.4249 20.6537C39.4249 19.4389 39.182 18.3897 38.696 17.5061C38.2101 16.6005 37.5474 15.8937 36.708 15.3856C35.8908 14.8555 34.9741 14.5904 33.958 14.5904C32.9419 14.5904 32.0142 14.8555 31.1749 15.3856C30.3355 15.8937 29.6728 16.6005 29.1869 17.5061C28.7009 18.3897 28.458 19.4389 28.458 20.6537C28.458 21.8244 28.7009 22.8626 29.1869 23.7682C29.6728 24.6739 30.3355 25.3807 31.1749 25.8887C32.0142 26.3968 32.9419 26.6508 33.958 26.6508C34.9741 26.6508 35.8908 26.3968 36.708 25.8887C37.5474 25.3807 38.2101 24.6739 38.696 23.7682C39.182 22.8626 39.4249 21.8244 39.4249 20.6537Z" fill="#24CB43"/>
<path d="M53.4795 11.5422C55.0477 11.5422 56.2626 11.8736 57.1241 12.5362C57.9855 13.1768 58.5819 14.0493 58.9132 15.1537C59.2666 16.236 59.4434 17.4509 59.4434 18.7983V27.6779C59.4434 28.1639 59.2777 28.5725 58.9464 28.9038C58.6371 29.2131 58.2506 29.3677 57.7867 29.3677C57.3008 29.3677 56.9032 29.2131 56.5939 28.9038C56.2847 28.5725 56.1301 28.1639 56.1301 27.6779V18.8314C56.1301 18.0363 56.0196 17.3294 55.7987 16.7109C55.5779 16.0704 55.1913 15.5623 54.6391 15.1868C54.109 14.7892 53.358 14.5904 52.3861 14.5904C51.4804 14.5904 50.6852 14.7892 50.0005 15.1868C49.3158 15.5623 48.7746 16.0704 48.377 16.7109C48.0015 17.3294 47.8137 18.0363 47.8137 18.8314V27.6779C47.8137 28.1639 47.6481 28.5725 47.3167 28.9038C47.0075 29.2131 46.621 29.3677 46.1571 29.3677C45.6712 29.3677 45.2736 29.2131 44.9643 28.9038C44.6551 28.5725 44.5005 28.1639 44.5005 27.6779V13.6296C44.5005 13.1436 44.6551 12.746 44.9643 12.4368C45.2736 12.1055 45.6712 11.9398 46.1571 11.9398C46.621 11.9398 47.0075 12.1055 47.3167 12.4368C47.6481 12.746 47.8137 13.1436 47.8137 13.6296V15.485L47.2173 15.8164C47.372 15.3304 47.637 14.8445 48.0125 14.3585C48.4101 13.8505 48.885 13.3866 49.4372 12.9669C49.9895 12.5252 50.6079 12.1828 51.2927 11.9398C51.9774 11.6748 52.7064 11.5422 53.4795 11.5422Z" fill="#24CB43"/>
<path d="M70.1732 29.699C68.3399 29.699 66.7495 29.3235 65.4021 28.5725C64.0547 27.7994 63.0055 26.7502 62.2545 25.4249C61.5255 24.0775 61.1611 22.5423 61.1611 20.8194C61.1611 18.8756 61.5476 17.219 62.3207 15.8495C63.1159 14.4579 64.143 13.3977 65.4021 12.6687C66.6611 11.9177 67.9975 11.5422 69.4112 11.5422C70.4935 11.5422 71.5206 11.7631 72.4925 12.2049C73.4644 12.6246 74.3259 13.221 75.0769 13.9941C75.85 14.7451 76.4574 15.6396 76.8992 16.6778C77.3409 17.6939 77.5729 18.8094 77.595 20.0242C77.5729 20.466 77.3962 20.8305 77.0648 21.1176C76.7335 21.4048 76.347 21.5483 75.9052 21.5483H63.0165L62.2213 18.732H74.6793L74.0498 19.3284V18.5001C74.0056 17.727 73.7516 17.0533 73.2877 16.479C72.8238 15.8826 72.2495 15.4298 71.5648 15.1206C70.88 14.7892 70.1622 14.6236 69.4112 14.6236C68.7485 14.6236 68.1079 14.734 67.4895 14.9549C66.8931 15.1537 66.3519 15.485 65.8659 15.9489C65.4021 16.4127 65.0266 17.0312 64.7394 17.8043C64.4744 18.5553 64.3418 19.4941 64.3418 20.6206C64.3418 21.8355 64.5959 22.8957 65.1039 23.8014C65.6119 24.707 66.2967 25.4138 67.1581 25.9219C68.0196 26.4078 68.9694 26.6508 70.0075 26.6508C70.8248 26.6508 71.4985 26.5735 72.0286 26.4189C72.5588 26.2421 73.0005 26.0323 73.354 25.7893C73.7074 25.5464 74.0166 25.3144 74.2817 25.0935C74.613 24.8947 74.9443 24.7953 75.2757 24.7953C75.6733 24.7953 76.0046 24.9389 76.2696 25.2261C76.5347 25.4911 76.6672 25.8114 76.6672 26.1869C76.6672 26.6729 76.4243 27.1146 75.9383 27.5122C75.3419 28.0865 74.5136 28.5946 73.4534 29.0363C72.4152 29.4781 71.3218 29.699 70.1732 29.699Z" fill="#24CB43"/>
<path d="M82.9304 27.6779C82.9304 28.1639 82.7647 28.5725 82.4334 28.9038C82.1241 29.2131 81.7376 29.3677 81.2737 29.3677C80.8099 29.3677 80.4123 29.2131 80.081 28.9038C79.7717 28.5725 79.6171 28.1639 79.6171 27.6779V6.53917C79.6171 6.05322 79.7828 5.65563 80.1141 5.34639C80.4454 5.01506 80.843 4.8494 81.3069 4.8494C81.7928 4.8494 82.1794 5.01506 82.4665 5.34639C82.7758 5.65563 82.9304 6.05322 82.9304 6.53917V27.6779Z" fill="#24CB43"/>
<path d="M98.3433 11.8073C98.8293 11.8073 99.2269 11.9729 99.5361 12.3043C99.8454 12.6135 100 13.0111 100 13.4971V27.7442C100 29.688 99.6245 31.2673 98.8735 32.4822C98.1445 33.697 97.1506 34.5806 95.8915 35.1328C94.6546 35.7071 93.2519 35.9942 91.6837 35.9942C90.8885 35.9942 90.0933 35.9169 89.2981 35.7623C88.5029 35.6298 87.8513 35.431 87.3433 35.1659C86.8131 34.9229 86.4376 34.6247 86.2167 34.2713C85.9958 33.9179 85.9627 33.5314 86.1173 33.1117C86.272 32.5816 86.537 32.2171 86.9125 32.0183C87.288 31.8416 87.6746 31.8305 88.0722 31.9852C88.4477 32.1398 88.9447 32.3386 89.5631 32.5816C90.1816 32.8245 90.8885 32.946 91.6837 32.946C92.766 32.946 93.6827 32.7693 94.4337 32.4159C95.1847 32.0625 95.7479 31.5103 96.1234 30.7593C96.521 30.0082 96.7198 29.0363 96.7198 27.8436V25.5574L97.25 26.3526C96.8965 27.0815 96.4327 27.6889 95.8584 28.1749C95.2841 28.6608 94.5993 29.0363 93.8041 29.3014C93.0311 29.5665 92.1696 29.699 91.2198 29.699C90.0049 29.699 88.9557 29.4339 88.0722 28.9038C87.2107 28.3516 86.5481 27.6006 86.0842 26.6508C85.6203 25.6789 85.3884 24.5745 85.3884 23.3375V13.4971C85.3884 13.0111 85.543 12.6135 85.8523 12.3043C86.1615 11.9729 86.5591 11.8073 87.0451 11.8073C87.5089 11.8073 87.8955 11.9729 88.2047 12.3043C88.536 12.6135 88.7017 13.0111 88.7017 13.4971V22.4429C88.7017 23.9008 89.022 24.9721 89.6626 25.6568C90.3031 26.3195 91.2529 26.6508 92.512 26.6508C93.3513 26.6508 94.0803 26.4741 94.6987 26.1207C95.3172 25.7672 95.8032 25.2813 96.1566 24.6628C96.51 24.0222 96.6867 23.2823 96.6867 22.4429V13.4971C96.6867 13.0111 96.8413 12.6135 97.1506 12.3043C97.4819 11.9729 97.8795 11.8073 98.3433 11.8073Z" fill="#24CB43"/>
<path d="M6.71881 0.556857C8.15052 0.782691 9.61487 1.91413 9.78924 3.65802C7.65225 1.63234 5.70709 4.09948 3.96016 4.14007C1.93449 4.18715 0.283191 3.15423 0 0C1.17373 1.42744 2.28831 1.8482 3.95991 1.01111C4.81154 0.58463 5.45796 0.357977 6.71881 0.556857Z" fill="#FF7D1F"/>
<path fill-rule="evenodd" clip-rule="evenodd" d="M9.85243 5.08286C10.7882 5.08286 11.5467 5.84142 11.5467 6.77715V27.8617C11.5467 28.7974 10.7882 29.556 9.85243 29.556C8.9167 29.556 8.15814 28.7974 8.15814 27.8617V6.77715C8.15814 5.84142 8.9167 5.08286 9.85243 5.08286ZM21.3226 13.3228C22.2584 13.3228 23.0169 14.0813 23.0169 15.0171V27.8617C23.0169 28.7974 22.2584 29.556 21.3226 29.556C20.3869 29.556 19.6283 28.7974 19.6283 27.8617V15.0171C19.6283 14.0813 20.3869 13.3228 21.3226 13.3228Z" fill="#24CB43"/>
<path fill-rule="evenodd" clip-rule="evenodd" d="M7.21821 17.2338L6.40074 15.7497C5.58328 14.2657 5.58335 14.2656 5.58346 14.2656L5.67731 14.214C5.73785 14.1808 5.82639 14.1324 5.93924 14.0708C6.16492 13.9478 6.48802 13.7723 6.8791 13.5618C7.66052 13.1412 8.71674 12.5792 9.81105 12.016C10.9013 11.4549 12.0471 10.8835 13.0024 10.449C13.4778 10.2328 13.9296 10.0396 14.3155 9.89717C14.5079 9.82617 14.7058 9.75958 14.8955 9.70874C15.0573 9.66537 15.3279 9.60095 15.6252 9.60095C15.9322 9.60095 16.2048 9.66909 16.372 9.71728C16.5628 9.77229 16.7558 9.84359 16.9377 9.91776C17.3022 10.0664 17.7167 10.2656 18.1425 10.4846C18.9987 10.9249 20.0087 11.5015 20.9598 12.0643C21.9157 12.6298 22.8332 13.1938 23.5102 13.6156C23.8492 13.8267 24.1289 14.0028 24.3243 14.1263C24.422 14.1881 24.4987 14.2368 24.5512 14.2702L24.6327 14.3222L24.633 14.3224C24.6331 14.3224 24.6332 14.3225 23.7202 15.7497L24.633 14.3224C25.4213 14.8266 25.6516 15.8745 25.1474 16.6628C24.6431 17.451 23.5954 17.6812 22.8071 17.177L22.7322 17.1292C22.6821 17.0973 22.6081 17.0503 22.5132 16.9903C22.3234 16.8703 22.0503 16.6983 21.7187 16.4919C21.0549 16.0784 20.1608 15.5288 19.2344 14.9807C18.3033 14.4298 17.3603 13.8928 16.5926 13.4979C16.2064 13.2993 15.8912 13.1505 15.6583 13.0555C15.6396 13.0479 15.622 13.0409 15.6056 13.0344C15.571 13.0463 15.5322 13.0601 15.4889 13.0761C15.2148 13.1773 14.8482 13.3321 14.4054 13.5335C13.5245 13.9342 12.4353 14.4764 11.3616 15.029C10.292 15.5794 9.25545 16.131 8.48505 16.5456C8.10022 16.7528 7.78266 16.9253 7.56164 17.0458C7.45115 17.106 7.36484 17.1533 7.30636 17.1853L7.21821 17.2338ZM15.8064 12.9738C15.8062 12.9739 15.802 12.9749 15.794 12.9764C15.8025 12.9743 15.8065 12.9736 15.8064 12.9738ZM15.4271 12.9715C15.419 12.9698 15.4147 12.9686 15.4146 12.9684C15.4145 12.9683 15.4185 12.9691 15.4271 12.9715ZM4.9167 16.5672C4.46523 15.7476 4.76384 14.717 5.58346 14.2656L6.40074 15.7497L7.21821 17.2338C6.39859 17.6852 5.36817 17.3868 4.9167 16.5672Z" fill="#24CB43"/>
</svg>
